<?xml version="1.0" encoding="utf-8"?>
<svg contentScriptType="text/ecmascript" xmlns:xlink="http://www.w3.org/1999/xlink" zoomAndPan="magnify" contentStyleType="text/css" viewBox="57.0 66.5 706.9999999999999 360.00000000000006" xmlns:cacoo="http://cacoo.com/" preserveAspectRatio="xMidYMin meet" xmlns="http://www.w3.org/2000/svg" version="1.1"><defs><marker refX="14.0" refY="7.0" markerUnits="userSpaceOnUse" orient="auto" id="id3" markerHeight="14.0" viewBox="0 0 14.0 14.0" preserveAspectRatio="xMidYMid meet" markerWidth="14.0" overflow="visible"><path fill="none" d="M7.0 3.5 L14.0 7.0 L7.0 10.5" stroke-width="3.0" stroke-linejoin="round" stroke-linecap="round" stroke="#000000"/></marker><marker refX="14.0" refY="7.0" markerUnits="userSpaceOnUse" orient="auto" id="id4" markerHeight="14.0" viewBox="0 0 14.0 14.0" preserveAspectRatio="xMidYMid meet" markerWidth="14.0" overflow="visible"><path fill="none" d="M7.0 3.5 L14.0 7.0 L7.0 10.5" stroke-width="3.0" stroke-linejoin="round" stroke-linecap="round" stroke="#000000"/></marker><marker refX="14.0" refY="7.0" markerUnits="userSpaceOnUse" orient="auto" id="id6" markerHeight="14.0" viewBox="0 0 14.0 14.0" preserveAspectRatio="xMidYMid meet" markerWidth="14.0" overflow="visible"><path fill="none" d="M7.0 3.5 L14.0 7.0 L7.0 10.5" stroke-width="3.0" stroke-linejoin="round" stroke-linecap="round" stroke="#000000"/></marker><marker refX="14.0" refY="7.0" markerUnits="userSpaceOnUse" orient="auto" id="id8" markerHeight="14.0" viewBox="0 0 14.0 14.0" preserveAspectRatio="xMidYMid meet" markerWidth="14.0" overflow="visible"><path fill="none" d="M7.0 3.5 L14.0 7.0 L7.0 10.5" stroke-width="3.0" stroke-linejoin="round" stroke-linecap="round" stroke="#000000"/></marker><marker refX="14.0" refY="7.0" markerUnits="userSpaceOnUse" orient="auto" id="id11" markerHeight="14.0" viewBox="0 0 14.0 14.0" preserveAspectRatio="xMidYMid meet" markerWidth="14.0" overflow="visible"><path fill="none" d="M7.0 3.5 L14.0 7.0 L7.0 10.5" stroke-width="3.0" stroke-linejoin="round" stroke-linecap="round" stroke="#000000"/></marker><marker refX="14.0" refY="7.0" markerUnits="userSpaceOnUse" orient="auto" id="id17" markerHeight="14.0" viewBox="0 0 14.0 14.0" preserveAspectRatio="xMidYMid meet" markerWidth="14.0" overflow="visible"><path fill="none" d="M7.0 3.5 L14.0 7.0 L7.0 10.5" stroke-width="3.0" stroke-linejoin="round" stroke-linecap="round" stroke="#000000"/></marker><marker refX="14.0" refY="7.0" markerUnits="userSpaceOnUse" orient="auto" id="id18" markerHeight="14.0" viewBox="0 0 14.0 14.0" preserveAspectRatio="xMidYMid meet" markerWidth="14.0" overflow="visible"><path fill="none" d="M7.0 3.5 L14.0 7.0 L7.0 10.5" stroke-width="3.0" stroke-linejoin="round" stroke-linecap="round" stroke="#000000"/></marker></defs><g><g transform="translate(361.0 81.5)"><path fill="#b9e0a5" fill-opacity="1.0" d="M99.99999999999989 56.5 L0.0 56.5 L0.0 0.0 L99.99999999999989 0.0 L99.99999999999989 56.5z" stroke-width="3.0" stroke-linejoin="round" stroke="#74c14a"/><g transform="translate(1.0 1.0)"><defs><clipPath id="id0"><path d="M0 0 L98.0 0 L98.0 54.5 L0 54.5z"/></clipPath></defs><text font-size="12" clip-path="url(#id0)" text-decoration="none" fill="#000000" font-family="Arial,Arial" font-style="normal" font-weight="normal"><tspan x="21.0" xml:space="preserve" y="31.5" textLength="55.5">出資Tx (F)</tspan></text></g></g><g transform="translate(131.0 207.0)"><path fill="#ffffff" fill-opacity="1.0" d="M170.9999999999999 110.5000000000001 L0.0 110.5000000000001 L0.0 0.0 L170.9999999999999 0.0 L170.9999999999999 110.5000000000001z" stroke-width="3.0" stroke-linejoin="round" stroke="#000000"/><g transform="translate(1.0 1.0)"><defs><clipPath id="id1"><path d="M0 0 L169.0 0 L169.0 108.5 L0 108.5z"/></clipPath></defs><text font-size="12" clip-path="url(#id1)" text-decoration="none" fill="#000000" font-family="Arial,Arial" font-style="normal" font-weight="normal"><tspan x="2.0" xml:space="preserve" y="18.0" textLength="37.0">確約Tx</tspan><tspan x="2.0" xml:space="preserve" y="45.0" textLength="27.0">出力:</tspan><tspan x="2.0" xml:space="preserve" y="58.5" textLength="86.5">0. Alice 0.5 BTC</tspan><tspan x="2.0" xml:space="preserve" y="72.0" textLength="82.0">1. Bob 0.5 BTC</tspan><tspan x="2.0" xml:space="preserve" y="99.0" textLength="75.5">LockTimeなし</tspan></text><text font-size="12" clip-path="url(#id1)" text-decoration="none" fill="#000000" font-family="Arial,Arial" font-style="normal" font-weight="normal"/></g></g><g transform="translate(390.875 159.0)"><g transform="translate(0.0 0.0)"><path fill="#ffffff" fill-opacity="1.0" d="M40.25 20.125 Q40.25 28.460648615 34.35578999999999 34.35518625 Q28.461298249999995 40.25 20.125 40.25 Q11.78902375 40.25 5.894512921499999 34.35548732 Q0.0 28.460976249999995 0.0 20.125 Q0.0 11.78902375 5.894512116499998 5.894512921499999 Q11.78902375 0.0 20.125 0.0 Q28.46144073499999 0.0 34.35578999999999 5.894512116499998 Q40.25 11.78888529 40.25 20.125 L40.25 20.125z" stroke-width="3.0" stroke-linejoin="round" stroke="#000000"/><g transform="translate(5.572209944725034 6.408605356216429)"><defs><clipPath id="id2"><path d="M0 0 L29.108799877166742 0 L29.108799877166742 27.247639656066884 L0 27.247639656066884z"/></clipPath></defs><text font-size="12" clip-path="url(#id2)" text-decoration="none" fill="#000000" font-family="Arial,Arial" font-style="normal" font-weight="normal"/></g></g><path fill="none" d="M0.0 20.125 L39.449620265124224 20.125" stroke-width="3.0" stroke-linejoin="round" stroke="#000000"/><path fill="none" d="M20.125 0.0 L20.125 39.65446343059395" stroke-width="3.0" stroke-linejoin="round" stroke="#000000"/></g><path fill="none" marker-end="url(#id3)" d="M410.99999999999994 138.0 L411.0 159.0" stroke-width="3.0" stroke-linejoin="round" stroke="#000000"/><path fill="none" marker-end="url(#id4)" d="M390.875 179.125 L216.49999999999994 179.125 L216.49999999999994 207.0" stroke-width="3.0" stroke-linejoin="round" stroke="#000000"/><g transform="translate(520.0 206.0)"><path fill="#ffffff" fill-opacity="1.0" d="M170.9999999999999 110.50000000000011 L0.0 110.50000000000011 L0.0 0.0 L170.9999999999999 0.0 L170.9999999999999 110.50000000000011z" stroke-width="3.0" stroke-linejoin="round" stroke="#000000"/><g transform="translate(1.0 1.0)"><defs><clipPath id="id5"><path d="M0 0 L169.0 0 L169.0 108.5 L0 108.5z"/></clipPath></defs><text font-size="12" clip-path="url(#id5)" text-decoration="none" fill="#000000" font-family="Arial,Arial" font-style="normal" font-weight="normal"><tspan x="2.0" xml:space="preserve" y="18.0" textLength="37.0">確約Tx</tspan><tspan x="2.0" xml:space="preserve" y="45.0" textLength="27.0">出力:</tspan><tspan x="2.0" xml:space="preserve" y="58.5" textLength="86.5">0. Alice 0.4 BTC</tspan><tspan x="2.0" xml:space="preserve" y="72.0" textLength="82.0">1. Bob 0.6 BTC</tspan><tspan x="2.0" xml:space="preserve" y="99.0" textLength="75.5">LockTimeなし</tspan></text><text font-size="12" clip-path="url(#id5)" text-decoration="none" fill="#000000" font-family="Arial,Arial" font-style="normal" font-weight="normal"/></g></g><path fill="none" marker-end="url(#id6)" d="M431.125 179.125 L605.5 179.125 L605.5 206.0" stroke-width="3.0" stroke-linejoin="round" stroke="#000000"/><g transform="translate(72.0 367.0)"><path fill="#ffffff" fill-opacity="1.0" d="M115.99999999999982 44.50000000000005 L0.0 44.50000000000005 L0.0 0.0 L115.99999999999982 0.0 L115.99999999999982 44.50000000000005z" stroke-width="3.0" stroke-linejoin="round" stroke="#000000"/><g transform="translate(1.0 1.0)"><defs><clipPath id="id7"><path d="M0 0 L114.0 0 L114.0 42.5 L0 42.5z"/></clipPath></defs><text font-size="12" clip-path="url(#id7)" text-decoration="none" fill="#000000" font-family="Arial,Arial" font-style="normal" font-weight="normal"><tspan x="2.0" xml:space="preserve" y="18.75" textLength="99.0">Aliceは確約Txから</tspan><tspan x="2.0" xml:space="preserve" y="32.25" textLength="104.0">0.5 BTCを受取可能</tspan></text></g></g><path fill="none" marker-end="url(#id8)" d="M216.49999999999994 317.5000000000001 L216.49999999999994 342.25000000000006 L129.99999999999991 342.25000000000006 L129.99999999999991 367.0" stroke-width="3.0" stroke-linejoin="round" stroke="#000000"/><g transform="translate(141.0 347.0)"><path fill="#000000" fill-opacity="1.0" d="M47.499999999999936 14.750000000000016 L0.0 14.750000000000016 L0.0 0.0 L47.499999999999936 0.0 L47.499999999999936 14.750000000000016z" stroke-width="2.0" stroke-linejoin="round" stroke="#000000"/><g transform="translate(1.0 1.0)"><defs><clipPath id="id9"><path d="M0 0 L45.5 0 L45.5 12.75 L0 12.75z"/></clipPath></defs><text font-size="12" clip-path="url(#id9)" text-decoration="none" fill="#ffffff" font-family="Arial,Arial" font-style="normal" font-weight="normal"><tspan x="5.5" xml:space="preserve" y="10.625" textLength="34.0">出力 0</tspan></text></g></g><g transform="translate(246.0 367.0)"><path fill="#ffffff" fill-opacity="1.0" d="M114.99999999999986 44.50000000000005 L0.0 44.50000000000005 L0.0 0.0 L114.99999999999986 0.0 L114.99999999999986 44.50000000000005z" stroke-width="3.0" stroke-linejoin="round" stroke="#000000"/><g transform="translate(1.0 1.0)"><defs><clipPath id="id10"><path d="M0 0 L113.0 0 L113.0 42.5 L0 42.5z"/></clipPath></defs><text font-size="12" clip-path="url(#id10)" text-decoration="none" fill="#000000" font-family="Arial,Arial" font-style="normal" font-weight="normal"><tspan x="2.0" xml:space="preserve" y="18.75" textLength="96.0">BoBは確約Txから</tspan><tspan x="2.0" xml:space="preserve" y="32.25" textLength="104.0">0.5 BTCを受取可能</tspan></text></g></g><path fill="none" marker-end="url(#id11)" d="M216.49999999999994 317.5000000000001 L216.49999999999994 342.25000000000006 L303.49999999999994 342.25000000000006 L303.49999999999994 367.0" stroke-width="3.0" stroke-linejoin="round" stroke="#000000"/><g transform="translate(246.0 347.0)"><path fill="#000000" fill-opacity="1.0" d="M47.499999999999936 14.75000000000002 L0.0 14.75000000000002 L0.0 0.0 L47.499999999999936 0.0 L47.499999999999936 14.75000000000002z" stroke-width="2.0" stroke-linejoin="round" stroke="#000000"/><g transform="translate(1.0 1.0)"><defs><clipPath id="id12"><path d="M0 0 L45.5 0 L45.5 12.75 L0 12.75z"/></clipPath></defs><text font-size="12" clip-path="url(#id12)" text-decoration="none" fill="#ffffff" font-family="Arial,Arial" font-style="normal" font-weight="normal"><tspan x="5.5" xml:space="preserve" y="10.625" textLength="34.0">出力 1</tspan></text></g></g><g transform="translate(461.0 367.0)"><path fill="#ffffff" fill-opacity="1.0" d="M115.99999999999982 44.50000000000005 L0.0 44.50000000000005 L0.0 0.0 L115.99999999999982 0.0 L115.99999999999982 44.50000000000005z" stroke-width="3.0" stroke-linejoin="round" stroke="#000000"/><g transform="translate(1.0 1.0)"><defs><clipPath id="id13"><path d="M0 0 L114.0 0 L114.0 42.5 L0 42.5z"/></clipPath></defs><text font-size="12" clip-path="url(#id13)" text-decoration="none" fill="#000000" font-family="Arial,Arial" font-style="normal" font-weight="normal"><tspan x="2.0" xml:space="preserve" y="18.75" textLength="99.0">Aliceは確約Txから</tspan><tspan x="2.0" xml:space="preserve" y="32.25" textLength="104.0">0.4 BTCを受取可能</tspan></text></g></g><g transform="translate(529.0 347.0)"><path fill="#000000" fill-opacity="1.0" d="M47.499999999999936 14.750000000000016 L0.0 14.750000000000016 L0.0 0.0 L47.499999999999936 0.0 L47.499999999999936 14.750000000000016z" stroke-width="2.0" stroke-linejoin="round" stroke="#000000"/><g transform="translate(1.0 1.0)"><defs><clipPath id="id14"><path d="M0 0 L45.5 0 L45.5 12.75 L0 12.75z"/></clipPath></defs><text font-size="12" clip-path="url(#id14)" text-decoration="none" fill="#ffffff" font-family="Arial,Arial" font-style="normal" font-weight="normal"><tspan x="5.5" xml:space="preserve" y="10.625" textLength="34.0">出力 0</tspan></text></g></g><g transform="translate(634.0 367.0)"><path fill="#ffffff" fill-opacity="1.0" d="M114.99999999999986 44.50000000000005 L0.0 44.50000000000005 L0.0 0.0 L114.99999999999986 0.0 L114.99999999999986 44.50000000000005z" stroke-width="3.0" stroke-linejoin="round" stroke="#000000"/><g transform="translate(1.0 1.0)"><defs><clipPath id="id15"><path d="M0 0 L113.0 0 L113.0 42.5 L0 42.5z"/></clipPath></defs><text font-size="12" clip-path="url(#id15)" text-decoration="none" fill="#000000" font-family="Arial,Arial" font-style="normal" font-weight="normal"><tspan x="2.0" xml:space="preserve" y="18.75" textLength="96.0">BoBは確約Txから</tspan><tspan x="2.0" xml:space="preserve" y="32.25" textLength="104.0">0.6 BTCを受取可能</tspan></text></g></g><g transform="translate(634.0 347.0)"><path fill="#000000" fill-opacity="1.0" d="M47.499999999999936 14.75000000000002 L0.0 14.75000000000002 L0.0 0.0 L47.499999999999936 0.0 L47.499999999999936 14.75000000000002z" stroke-width="2.0" stroke-linejoin="round" stroke="#000000"/><g transform="translate(1.0 1.0)"><defs><clipPath id="id16"><path d="M0 0 L45.5 0 L45.5 12.75 L0 12.75z"/></clipPath></defs><text font-size="12" clip-path="url(#id16)" text-decoration="none" fill="#ffffff" font-family="Arial,Arial" font-style="normal" font-weight="normal"><tspan x="5.5" xml:space="preserve" y="10.625" textLength="34.0">出力 1</tspan></text></g></g><path fill="none" marker-end="url(#id17)" d="M605.5 316.5000000000001 L605.5 341.75000000000006 L518.9999999999999 341.75000000000006 L518.9999999999999 367.0" stroke-width="3.0" stroke-linejoin="round" stroke="#000000"/><path fill="none" marker-end="url(#id18)" d="M605.5 316.5000000000001 L605.5 341.75000000000006 L691.4999999999999 341.75000000000006 L691.4999999999999 367.0" stroke-width="3.0" stroke-linejoin="round" stroke="#000000"/></g></svg>